<mxfile host="app.diagrams.net" agent="Mozilla/5.0 (Macintosh; Intel Mac OS X 10_15_7) AppleWebKit/605.1.15 (KHTML, like Gecko) Version/26.0.1 Safari/605.1.15" version="28.2.8">
  <diagram name="Page-1" id="vvm8L-bD206JI49bBz1J">
    <mxGraphModel dx="1186" dy="762" grid="1" gridSize="10" guides="1" tooltips="1" connect="1" arrows="1" fold="1" page="1" pageScale="1" pageWidth="827" pageHeight="1169" background="none" math="0" shadow="0">
      <root>
        <mxCell id="0" />
        <mxCell id="1" parent="0" />
        <mxCell id="yYB6ttLMMC7M4EAeiOsq-2" value="&lt;font style=&quot;font-size: 18px;&quot;&gt;REMMITANCE WEB APP ARCHITECTURE&lt;/font&gt;" style="text;html=1;whiteSpace=wrap;strokeColor=none;fillColor=none;align=left;verticalAlign=middle;rounded=0;" parent="1" vertex="1">
          <mxGeometry x="210" y="40" width="360" height="30" as="geometry" />
        </mxCell>
        <mxCell id="yYB6ttLMMC7M4EAeiOsq-3" value="&lt;div style=&quot;&quot;&gt;&lt;font style=&quot;font-size: 14px;&quot;&gt;By: &lt;span style=&quot;white-space: pre;&quot;&gt;&#x9;&lt;/span&gt;&lt;span style=&quot;white-space: pre;&quot;&gt;&#x9;&lt;/span&gt;David Ajimati&lt;/font&gt;&lt;/div&gt;&lt;div style=&quot;&quot;&gt;&lt;span style=&quot;font-size: 14px;&quot;&gt;For: &lt;/span&gt;&lt;span style=&quot;font-size: 14px; white-space: pre;&quot;&gt;&#x9;&lt;/span&gt;&lt;span style=&quot;font-size: 14px; white-space: pre;&quot;&gt;&#x9;&lt;/span&gt;&lt;span style=&quot;font-size: 14px;&quot;&gt;Paul Abalone&lt;/span&gt;&lt;br&gt;&lt;/div&gt;" style="text;html=1;whiteSpace=wrap;strokeColor=none;fillColor=none;align=center;verticalAlign=middle;rounded=0;" parent="1" vertex="1">
          <mxGeometry x="330" y="80" width="150" height="30" as="geometry" />
        </mxCell>
        <mxCell id="R72eKvO9BMf7VaN-7Tnj-1" value="+------------------------+&#xa;| Â  Nigerian Users Â  Â |&#xa;+------------------------+&#xa;Â  Â  Â  Â  Â  Â Â Â Â Â Â Â Â Â |&#xa;Â  Â  Â  Â  Â  Â Â Â Â Â Â Â Â Â v&#xa;+--------------------------------------+&#xa;| Your NGN Pool Account Â  Â  Â  Â |&#xa;| (Providus / Moniepoint etc.) Â  |&#xa;+--------------------------------------+&#xa;Â  Â  Â  Â  Â  Â Â Â Â Â Â Â Â Â |&#xa;Â  Â  Â  Â  Â  Â Â Â Â Â Â Â Â Â v&#xa;+----------------------------------------+&#xa;| Transfer to Yellow Card NGN Â |&#xa;| via API (for conversion) Â  Â  Â  Â  Â  |&#xa;+----------------------------------------+&#xa;Â  Â  Â  Â  Â  Â Â Â Â Â Â Â Â Â |&#xa;Â  Â  Â  Â  Â  Â Â Â Â Â Â Â Â Â v&#xa;+-------------------------------------+&#xa;| Yellow Card FX Engine Â  Â  Â  Â  |&#xa;| (NGN â†’ USDT â†’ GBP) Â  Â  Â  |&#xa;+--------------------------------------+&#xa;Â  Â  Â  Â  Â  Â Â Â Â Â Â Â Â Â |&#xa;Â  Â  Â  Â  Â  Â Â Â Â Â Â Â Â Â v&#xa;+--------------------------------------+&#xa;| Your UK Pool Account Â  Â  Â  Â  Â  |&#xa;| (Wise / Modulr / Payoneer) Â  Â |&#xa;+--------------------------------------+&#xa;Â  Â  Â  Â  Â  Â Â Â Â Â Â Â Â Â |&#xa;Â  Â  Â  Â  Â  Â Â Â Â Â Â Â Â Â v&#xa;+------------------------------------------+&#xa;| Recipientâ€™s UK Bank Account Â  Â  |&#xa;+------------------------------------------+&#xa;&#xa;í ½í²° Profit Points:&#xa;- FX spread (your rate vs. Yellow Cardâ€™s)&#xa;- Service / transaction fee&#xa;- Possibly timing FX conversion advantage" style="text;whiteSpace=wrap;" parent="1" vertex="1">
          <mxGeometry x="80" y="270" width="260" height="540" as="geometry" />
        </mxCell>
        <mxCell id="R72eKvO9BMf7VaN-7Tnj-2" value="OPTION 1:&lt;div&gt;Manage Pool accounts (and liquidity on both ends)&lt;/div&gt;" style="text;html=1;whiteSpace=wrap;strokeColor=none;fillColor=none;align=center;verticalAlign=middle;rounded=0;" parent="1" vertex="1">
          <mxGeometry x="70" y="210" width="310" height="30" as="geometry" />
        </mxCell>
      </root>
    </mxGraphModel>
  </diagram>
</mxfile>
